<svg xmlns="http://www.w3.org/2000/svg" viewBox="0 0 211.43 211.43"><defs><style>.cls-1{fill:#48E4BD;}.cls-2{fill:none;stroke:#48E4BD;stroke-miterlimit:10;stroke-width:10px;}</style></defs><title>Asset 1</title><g id="Layer_2" data-name="Layer 2"><g id="Layer_1-2" data-name="Layer 1"><path class="cls-1" d="M156.2,128.06a12.29,12.29,0,0,0-8.39-11.64V39.57l-3.95.08A82,82,0,0,0,64,112.85a17.65,17.65,0,0,0-8.7,15.21c0,.05,0,.1,0,.16s0,43.64,0,43.64H79.76V144.32a17.58,17.58,0,0,0,10.35-12.38H96.3v9.76H104V124.19H90.11a17.6,17.6,0,0,0-7.56-10.9A38.65,38.65,0,0,0,99.67,74.16a38.84,38.84,0,0,0,10.55,1.47q1.73,0,3.46-.15A38.7,38.7,0,0,0,137.86,64c.77-.79,1.5-1.61,2.2-2.45v54.89a12.26,12.26,0,0,0,0,23.27V160a4.11,4.11,0,0,1-8.23,0V149.82h-7.75V160a11.86,11.86,0,0,0,23.72,0V139.7A12.28,12.28,0,0,0,156.2,128.06ZM85.1,100.88a31,31,0,0,1-12.93,9A74,74,0,0,1,91,71.21a30.95,30.95,0,0,1-5.88,29.67Zm47.23-42.3a31,31,0,0,1-35,6.51,74.06,74.06,0,0,1,41.88-17.44A31,31,0,0,1,132.33,58.57Z"/><circle class="cls-2" cx="105.72" cy="105.72" r="100.72"/></g></g></svg>