<svg xmlns="http://www.w3.org/2000/svg" viewBox="0 0 211.43 211.43"><defs><style>.cls-1{fill:#62e1c1;}.cls-2{fill:none;stroke:#62e1c1;stroke-miterlimit:10;stroke-width:10px;}</style></defs><title>Asset 5</title><g id="Layer_2" data-name="Layer 2"><g id="Layer_1-2" data-name="Layer 1"><path class="cls-1" d="M159.89,77.85V60.28A20.72,20.72,0,0,0,139.2,39.59h-67A20.72,20.72,0,0,0,51.54,60.28V77.85ZM93.39,62.94H85.11V54.66h8.28Zm32.93,0H118V54.66h8.28Z"/><path class="cls-1" d="M176.35,122.18,159.89,98.36V86.13H51.54V98.36L35.08,122.18v8.45H55.47a51.23,51.23,0,0,0,100.49,0h20.4Zm-70.64,41.38a43,43,0,0,1-41.77-32.93h83.54A43,43,0,0,1,105.72,163.56Z"/><circle class="cls-2" cx="105.72" cy="105.72" r="100.72"/></g></g></svg>