<svg xmlns="http://www.w3.org/2000/svg" viewBox="0 0 211.43 211.43"><defs><style>.cls-1{fill:#62e1c1;}.cls-2{fill:none;stroke:#62e1c1;stroke-miterlimit:10;stroke-width:10px;}</style></defs><title>Asset 6</title><g id="Layer_2" data-name="Layer 2"><g id="Layer_1-2" data-name="Layer 1"><path class="cls-1" d="M126.73,94.58V63.49l-21-24.58L103,40.28A33.13,33.13,0,0,0,84.7,69.91v2.29a21.21,21.21,0,0,0,21,18.59v7.83a28.93,28.93,0,0,1-21-9v5A49.07,49.07,0,0,0,97.91,128.1a11.73,11.73,0,0,0,3.9,19.83v12.85a3.91,3.91,0,1,1-7.83,0v-4.54H86.14v4.54a11.74,11.74,0,0,0,19.57,8.74,11.74,11.74,0,0,0,19.57-8.74v-4.54h-7.83v4.54a3.91,3.91,0,1,1-7.83,0V147.93a11.73,11.73,0,0,0,3.9-19.83,49.07,49.07,0,0,0,13.21-33.52ZM105.38,75.74V67.88h7.83v7.86Z"/><circle class="cls-2" cx="105.72" cy="105.72" r="100.72"/></g></g></svg>