<svg xmlns="http://www.w3.org/2000/svg" viewBox="0 0 211.43 211.43"><defs><style>.cls-1{fill:#62e1c1;}.cls-2{fill:none;stroke:#62e1c1;stroke-miterlimit:10;stroke-width:10px;}</style></defs><title>Asset 2</title><g id="Layer_2" data-name="Layer 2"><g id="Layer_1-2" data-name="Layer 1"><path class="cls-1" d="M164.37,50.28l5.09,5.09,5.77-5.77L164.37,38.75l-66,66-6.25-6.25-56,56,18.26,18.26L75,152.18a18.52,18.52,0,0,0,16.92-1.51l4.61,4.61-7.27,7.27L95,168.31l13-13L97.65,144.9A18.51,18.51,0,0,0,99.16,128l11.25-11.25-6.25-6.25,16.21-16.21,5.09,5.09,5.77-5.77-5.09-5.09,16.23-16.23,5.09,5.09,5.77-5.77-5.09-5.09Z"/><circle class="cls-2" cx="105.72" cy="105.72" r="100.72"/></g></g></svg>