<svg xmlns="http://www.w3.org/2000/svg" viewBox="0 0 211.43 211.43"><defs><style>.cls-1{fill:#6BBD4B;}.cls-2{fill:none;stroke:#6BBD4B;stroke-miterlimit:10;stroke-width:10px;}</style></defs><title>Asset 4</title><g id="Layer_2" data-name="Layer 2"><g id="Layer_1-2" data-name="Layer 1"><path class="cls-1" d="M141.24,118.41c0-.93.06-1.87.06-2.8a35.65,35.65,0,0,0-24-33.63,14.46,14.46,0,0,0-7.72-22.53V38.91H101.8V59.46A14.46,14.46,0,0,0,94.08,82a35.65,35.65,0,0,0-24,33.63c0,.93,0,1.86.06,2.8Z"/><path class="cls-1" d="M38.91,164.69v7.83H69.53v-7.83Z"/><path class="cls-1" d="M113.54,164.69H97.89v7.83h15.66Z"/><path class="cls-1" d="M141.9,172.52h30.62v-7.83H141.9Z"/><path class="cls-1" d="M172.52,155.82V148H135.19a108.66,108.66,0,0,0,5.38-21.75H70.86A108.73,108.73,0,0,0,76.24,148H38.91v7.83Z"/><circle class="cls-2" cx="105.72" cy="105.72" r="100.72"/></g></g></svg>