<svg xmlns="http://www.w3.org/2000/svg" viewBox="0 0 211.43 211.43"><defs><style>.cls-1{fill:#9ABD4B;}.cls-2{fill:none;stroke:#9ABD4B;stroke-miterlimit:10;stroke-width:10px;}</style></defs><title>Asset 3</title><g id="Layer_2" data-name="Layer 2"><g id="Layer_1-2" data-name="Layer 1"><path class="cls-1" d="M133.64,70.37A28.31,28.31,0,0,0,117.86,48.8V39.57H93.57V48.8A28.31,28.31,0,0,0,77.79,70.37Z"/><path class="cls-1" d="M77.79,78.13a28.25,28.25,0,0,0,24,24v11.26a13.52,13.52,0,0,0,0,25.91v19a5.77,5.77,0,0,1-11.54,0V147.06H82.55v11.28a13.52,13.52,0,0,0,27,0v-19a13.52,13.52,0,0,0,0-25.91V102.18a28.25,28.25,0,0,0,24-24Z"/><circle class="cls-2" cx="105.72" cy="105.72" r="100.72"/></g></g></svg>