<?xml version="1.0" encoding="utf-8"?>
<!-- Generator: Adobe Illustrator 22.1.0, SVG Export Plug-In . SVG Version: 6.00 Build 0)  -->
<svg version="1.1" id="Layer_1" xmlns="http://www.w3.org/2000/svg" xmlns:xlink="http://www.w3.org/1999/xlink" x="0px" y="0px"
	 viewBox="0 0 478 600.1" style="enable-background:new 0 0 478 600.1;" xml:space="preserve">
<style type="text/css">
	.st0{fill:#076170;}
	.st1{fill:none;stroke:#05E2E2;stroke-width:3;stroke-miterlimit:10;}
	.st2{fill:#FFFFFF;}
	.st3{fill:#05E2E2;}
	.st4{fill:none;stroke:#00BDFF;stroke-width:3;stroke-miterlimit:10;}
	.st5{fill:#00BDFF;}
	.st6{fill:none;stroke:#05C48D;stroke-width:3;stroke-miterlimit:10;}
	.st7{fill:#05C48D;}
	.st8{fill:none;stroke:#FFCE00;stroke-width:3;stroke-miterlimit:10;}
	.st9{fill:#FFCE00;}
	.st10{fill:none;stroke:#000000;stroke-width:2;stroke-miterlimit:10;}
	.st11{fill:#FFFFFF;stroke:#48443E;stroke-width:2;stroke-miterlimit:10;}
	.st12{fill:#9ADCFF;stroke:#076170;stroke-width:4;stroke-miterlimit:10;}
	.st13{fill:none;stroke:#00BDFF;stroke-width:4;stroke-miterlimit:10;}
	.st14{fill:#9CFFF8;stroke:#076170;stroke-width:4;stroke-miterlimit:10;}
	.st15{fill:none;stroke:#05E2E2;stroke-width:4;stroke-miterlimit:10;}
	.st16{fill:#91EAD3;stroke:#076170;stroke-width:4;stroke-miterlimit:10;}
	.st17{fill:none;stroke:#05C48D;stroke-width:4;stroke-miterlimit:10;}
	.st18{fill:#FCE47E;stroke:#076170;stroke-width:4;stroke-miterlimit:10;}
	.st19{fill:none;stroke:#FFCE00;stroke-width:4;stroke-miterlimit:10;}
	.st20{fill:#027193;}
	.st21{font-family:'Helvetica-Bold';}
	.st22{font-size:18px;}
	.st23{font-size:12px;}
	.st24{fill:#F5F5F5;}
	.st25{fill:#14827C;}
	.st26{fill:#025E3D;}
	.st27{fill:#BC8702;}
	.st28{fill:#515151;}
	.st29{font-family:'Helvetica';}
	.st30{font-size:10.6809px;}
	.st31{font-size:20.9167px;}
</style>
<g>
	<g>
		<line class="st1" x1="63.2" y1="42.4" x2="234.7" y2="42.4"/>
		<g>
			<g>
				<path class="st2" d="M63.5,48c-3.1,0-5.6-2.5-5.6-5.6c0-3.1,2.5-5.6,5.6-5.6c3.1,0,5.6,2.5,5.6,5.6C69.1,45.5,66.6,48,63.5,48z"
					/>
				<path class="st3" d="M63.5,48.8c3.5,0,6.4-2.9,6.4-6.4S67,36,63.5,36c-3.5,0-6.4,2.9-6.4,6.4S60,48.8,63.5,48.8
					C67,48.8,60,48.8,63.5,48.8z M63.5,37.5c2.7,0,4.9,2.2,4.9,4.9c0,2.7-2.2,4.9-4.9,4.9c-2.7,0-4.9-2.2-4.9-4.9
					C58.6,39.7,60.8,37.5,63.5,37.5C66.2,37.5,60.8,37.5,63.5,37.5z"/>
			</g>
		</g>
	</g>
</g>
<g>
	<g>
		<line class="st4" x1="243.5" y1="119.1" x2="421.4" y2="119.1"/>
		<g>
			<g>
				<path class="st2" d="M421.1,124.7c3.1,0,5.6-2.5,5.6-5.6c0-3.1-2.5-5.6-5.6-5.6c-3.1,0-5.6,2.5-5.6,5.6
					C415.4,122.2,417.9,124.7,421.1,124.7z"/>
				<path class="st5" d="M421.1,125.5c-3.5,0-6.4-2.9-6.4-6.4c0-3.5,2.9-6.4,6.4-6.4c3.5,0,6.4,2.9,6.4,6.4
					C427.4,122.6,424.6,125.5,421.1,125.5C417.5,125.5,424.6,125.5,421.1,125.5z M421.1,114.2c-2.7,0-4.9,2.2-4.9,4.9
					s2.2,4.9,4.9,4.9c2.7,0,4.9-2.2,4.9-4.9S423.8,114.2,421.1,114.2C418.4,114.2,423.8,114.2,421.1,114.2z"/>
			</g>
		</g>
	</g>
</g>
<g>
	<g>
		<line class="st6" x1="250.3" y1="272.7" x2="421.4" y2="272.7"/>
		<g>
			<g>
				<path class="st2" d="M421.1,278.4c3.1,0,5.6-2.5,5.6-5.6s-2.5-5.6-5.6-5.6c-3.1,0-5.6,2.5-5.6,5.6S417.9,278.4,421.1,278.4z"/>
				<path class="st7" d="M421.1,279.1c-3.5,0-6.4-2.9-6.4-6.4s2.9-6.4,6.4-6.4c3.5,0,6.4,2.9,6.4,6.4S424.6,279.1,421.1,279.1
					C417.5,279.1,424.6,279.1,421.1,279.1z M421.1,267.8c-2.7,0-4.9,2.2-4.9,4.9s2.2,4.9,4.9,4.9c2.7,0,4.9-2.2,4.9-4.9
					S423.8,267.8,421.1,267.8C418.4,267.8,423.8,267.8,421.1,267.8z"/>
			</g>
		</g>
	</g>
</g>
<g>
	<g>
		<line class="st4" x1="250.3" y1="426.4" x2="421.4" y2="426.4"/>
		<g>
			<g>
				<path class="st2" d="M421.1,432c3.1,0,5.6-2.5,5.6-5.6s-2.5-5.6-5.6-5.6c-3.1,0-5.6,2.5-5.6,5.6S417.9,432,421.1,432z"/>
				<path class="st5" d="M421.1,432.8c-3.5,0-6.4-2.9-6.4-6.4s2.9-6.4,6.4-6.4c3.5,0,6.4,2.9,6.4,6.4S424.6,432.8,421.1,432.8
					C417.5,432.8,424.6,432.8,421.1,432.8z M421.1,421.5c-2.7,0-4.9,2.2-4.9,4.9s2.2,4.9,4.9,4.9c2.7,0,4.9-2.2,4.9-4.9
					S423.8,421.5,421.1,421.5C418.4,421.5,423.8,421.5,421.1,421.5z"/>
			</g>
		</g>
	</g>
</g>
<g>
	<line class="st0" x1="234.7" y1="195.9" x2="56.4" y2="195.9"/>
	<g>
		<line class="st8" x1="234.7" y1="195.9" x2="62.4" y2="195.9"/>
		<g>
			<g>
				<path class="st2" d="M62.8,190.3c-3.1,0-5.6,2.5-5.6,5.6c0,3.1,2.5,5.6,5.6,5.6c3.1,0,5.6-2.5,5.6-5.6
					C68.4,192.8,65.9,190.3,62.8,190.3z"/>
				<path class="st9" d="M62.8,189.5c3.5,0,6.4,2.9,6.4,6.4c0,3.5-2.9,6.4-6.4,6.4c-3.5,0-6.4-2.9-6.4-6.4
					C56.4,192.4,59.2,189.5,62.8,189.5C66.3,189.5,59.2,189.5,62.8,189.5z M62.8,200.8c2.7,0,4.9-2.2,4.9-4.9s-2.2-4.9-4.9-4.9
					c-2.7,0-4.9,2.2-4.9,4.9S60.1,200.8,62.8,200.8C65.5,200.8,60.1,200.8,62.8,200.8z"/>
			</g>
		</g>
	</g>
</g>
<g>
	<line class="st0" x1="234.7" y1="349.6" x2="56.4" y2="349.6"/>
	<g>
		<line class="st8" x1="234.7" y1="349.6" x2="62.4" y2="349.6"/>
		<g>
			<g>
				<path class="st2" d="M62.8,343.9c-3.1,0-5.6,2.5-5.6,5.6s2.5,5.6,5.6,5.6c3.1,0,5.6-2.5,5.6-5.6S65.9,343.9,62.8,343.9z"/>
				<path class="st9" d="M62.8,343.2c3.5,0,6.4,2.9,6.4,6.4s-2.9,6.4-6.4,6.4c-3.5,0-6.4-2.9-6.4-6.4S59.2,343.2,62.8,343.2
					C66.3,343.2,59.2,343.2,62.8,343.2z M62.8,354.5c2.7,0,4.9-2.2,4.9-4.9s-2.2-4.9-4.9-4.9c-2.7,0-4.9,2.2-4.9,4.9
					S60.1,354.5,62.8,354.5C65.5,354.5,60.1,354.5,62.8,354.5z"/>
			</g>
		</g>
	</g>
</g>
<g>
	<line class="st0" x1="234.7" y1="503.2" x2="56.4" y2="503.2"/>
	<g>
		<line class="st1" x1="234.7" y1="503.2" x2="62.4" y2="503.2"/>
		<g>
			<g>
				<path class="st2" d="M62.8,497.6c-3.1,0-5.6,2.5-5.6,5.6s2.5,5.6,5.6,5.6c3.1,0,5.6-2.5,5.6-5.6S65.9,497.6,62.8,497.6z"/>
				<path class="st3" d="M62.8,496.8c3.5,0,6.4,2.9,6.4,6.4s-2.9,6.4-6.4,6.4c-3.5,0-6.4-2.9-6.4-6.4S59.2,496.8,62.8,496.8
					C66.3,496.8,59.2,496.8,62.8,496.8z M62.8,508.1c2.7,0,4.9-2.2,4.9-4.9s-2.2-4.9-4.9-4.9c-2.7,0-4.9,2.2-4.9,4.9
					S60.1,508.1,62.8,508.1C65.5,508.1,60.1,508.1,62.8,508.1z"/>
			</g>
		</g>
	</g>
</g>
<polygon class="st10" points="243.5,521.1 242.5,369.1 242.5,128.7 242.5,109.4 242.5,34.6 242.5,34.6 "/>
<circle id="_x32_011_1_" class="st11" cx="242.5" cy="42.4" r="24.3"/>
<circle id="_x32_011" class="st12" cx="242.5" cy="42.4" r="18.5"/>
<circle id="_x32_011_2_" class="st13" cx="20.5" cy="42.4" r="18.5"/>
<circle id="_x32_011_3_" class="st13" cx="20.5" cy="503.2" r="18.5"/>
<circle id="_x32_010" class="st11" cx="241.5" cy="119.2" r="24.3"/>
<circle id="_x32_010_1_" class="st14" cx="241.5" cy="119.1" r="18.5"/>
<circle id="_x32_010_2_" class="st15" cx="457.4" cy="119.1" r="18.5"/>
<circle id="_x32_010_3_" class="st15" cx="457.4" cy="426.4" r="18.5"/>
<circle id="_x32_009_1_" class="st11" cx="242.5" cy="196.2" r="24.3"/>
<circle id="_x32_009" class="st16" cx="242.5" cy="196" r="18.5"/>
<circle id="_x32_009_2_" class="st17" cx="20.5" cy="196" r="18.5"/>
<circle id="_x32_009_3_" class="st17" cx="20.5" cy="349.6" r="18.5"/>
<circle id="_x32_008_1_" class="st11" cx="242.5" cy="273.2" r="24.3"/>
<circle id="_x32_008" class="st18" cx="242.5" cy="273.1" r="18.5"/>
<circle id="_x32_008_3_" class="st19" cx="457.4" cy="273.1" r="18.5"/>
<circle id="_x32_007_1_" class="st11" cx="241.5" cy="349.6" r="24.3"/>
<circle id="_x32_008_2_" class="st16" cx="241.5" cy="349.6" r="18.5"/>
<circle id="_x32_006_1_" class="st11" cx="242.5" cy="426.4" r="24.3"/>
<circle id="_x32_006" class="st14" cx="242.5" cy="426.3" r="18.5"/>
<circle id="_x32_005_1_" class="st11" cx="242.5" cy="503.2" r="24.3"/>
<circle id="_x32_005" class="st12" cx="242.5" cy="503.2" r="18.5"/>
<text transform="matrix(1 0 0 1 96.5756 37.0777)" class="st20 st21 st22">1st Quarter</text>
<text transform="matrix(1 0 0 1 229.4495 44.675)" class="st2 st21 st23">2011</text>
<text transform="matrix(1 0 0 1 228.2034 123.0682)" class="st24 st21 st23">2010</text>
<text transform="matrix(1 0 0 1 230.2034 199.6916)" class="st24 st21 st23">2009</text>
<text transform="matrix(1 0 0 1 229.2034 275.3635)" class="st24 st21 st23">2008</text>
<text transform="matrix(1 0 0 1 228.2037 353.8648)" class="st24 st21 st23">2007</text>
<text transform="matrix(1 0 0 1 229.2037 430.8213)" class="st24 st21 st23">2006</text>
<text transform="matrix(1 0 0 1 229.2037 507.1981)" class="st24 st21 st23">2005</text>
<text transform="matrix(1 0 0 1 313.7834 113.4017)" class="st25 st21 st22">April</text>
<text transform="matrix(1 0 0 1 108.552 190.0684)"><tspan x="0" y="0" class="st26 st21 st22">October </tspan><tspan x="-7" y="21.6" class="st26 st21 st22">November</tspan></text>
<text transform="matrix(1 0 0 1 289.8716 267.0684)"><tspan x="0" y="0" class="st27 st21 st22">March May </tspan><tspan x="-18" y="21.6" class="st27 st21 st22">June December</tspan></text>
<g>
	<text transform="matrix(1 0 0 1 102.0438 344.7352)"><tspan x="0" y="0" class="st26 st21 st22">May June </tspan><tspan x="-3" y="21.6" class="st26 st21 st22">November </tspan></text>
</g>
<g>
	<text transform="matrix(1 0 0 1 301.8878 422.4012)"><tspan x="0" y="0" class="st25 st21 st22">October </tspan><tspan x="0" y="21.6" class="st25 st21 st22">November</tspan></text>
</g>
<g>
	<text transform="matrix(1 0 0 1 108.5583 497.4015)"><tspan x="0" y="0" class="st20 st21 st22">Spring </tspan><tspan x="0" y="21.6" class="st20 st21 st22">Summer</tspan></text>
</g>
<text transform="matrix(1 0 0 1 76.6379 230.8711)"><tspan x="0" y="0" class="st28 st29 st30">This past fall’s batch of brown </tspan><tspan x="0" y="11.1" class="st28 st29 st30">trout eggs were successfully</tspan><tspan x="0" y="22.1" class="st28 st29 st30">hatched and have matured</tspan><tspan x="0" y="33.2" class="st28 st29 st30"> to the point where they are</tspan><tspan x="0" y="44.2" class="st28 st29 st30">now feeding actively </tspan><tspan x="0" y="55.3" class="st28 st29 st30">in the circular growth tank. . </tspan></text>
<text transform="matrix(1 0 0 1 76.6379 60.9383)"><tspan x="0" y="0" class="st28 st29 st30">This past fall’s batch of brown </tspan><tspan x="0" y="11.1" class="st28 st29 st30">trout eggs were successfully</tspan><tspan x="0" y="22.1" class="st28 st29 st30">hatched and have matured</tspan><tspan x="0" y="33.2" class="st28 st29 st30"> to the point where they are</tspan><tspan x="0" y="44.2" class="st28 st29 st30">now feeding actively </tspan><tspan x="0" y="55.3" class="st28 st29 st30">in the circular growth tank. . </tspan></text>
<text transform="matrix(1 0 0 1 76.6379 385.9383)"><tspan x="0" y="0" class="st28 st29 st30">This past fall’s batch of brown </tspan><tspan x="0" y="11.1" class="st28 st29 st30">trout eggs were successfully</tspan><tspan x="0" y="22.1" class="st28 st29 st30">hatched and have matured</tspan><tspan x="0" y="33.2" class="st28 st29 st30"> to the point where they are</tspan><tspan x="0" y="44.2" class="st28 st29 st30">now feeding actively </tspan><tspan x="0" y="55.3" class="st28 st29 st30">in the circular growth tank. . </tspan></text>
<text transform="matrix(1 0 0 1 270.6379 311.9383)"><tspan x="0" y="0" class="st28 st29 st30">This past fall’s batch of brown </tspan><tspan x="0" y="11.1" class="st28 st29 st30">trout eggs were successfully</tspan><tspan x="0" y="22.1" class="st28 st29 st30">hatched and have matured</tspan><tspan x="0" y="33.2" class="st28 st29 st30"> to the point where they are</tspan><tspan x="0" y="44.2" class="st28 st29 st30">now feeding actively </tspan><tspan x="0" y="55.3" class="st28 st29 st30">in the circular growth tank. . </tspan></text>
<text transform="matrix(1 0 0 1 271.6379 138.6052)"><tspan x="0" y="0" class="st28 st29 st30">This past fall’s batch of brown </tspan><tspan x="0" y="11.1" class="st28 st29 st30">trout eggs were successfully</tspan><tspan x="0" y="22.1" class="st28 st29 st30">hatched and have matured</tspan><tspan x="0" y="33.2" class="st28 st29 st30"> to the point where they are</tspan><tspan x="0" y="44.2" class="st28 st29 st30">now feeding actively </tspan><tspan x="0" y="55.3" class="st28 st29 st30">in the circular growth tank. . </tspan></text>
<text transform="matrix(1 0 0 1 270.6379 462.6052)"><tspan x="0" y="0" class="st28 st29 st30">This past fall’s batch of brown </tspan><tspan x="0" y="11.1" class="st28 st29 st30">trout eggs were successfully</tspan><tspan x="0" y="22.1" class="st28 st29 st30">hatched and have matured</tspan><tspan x="0" y="33.2" class="st28 st29 st30"> to the point where they are</tspan><tspan x="0" y="44.2" class="st28 st29 st30">now feeding actively </tspan><tspan x="0" y="55.3" class="st28 st29 st30">in the circular growth tank. . </tspan></text>
<text transform="matrix(1 0 0 1 77.1165 539.6052)"><tspan x="0" y="0" class="st28 st29 st30">This past fall’s batch of brown </tspan><tspan x="0" y="11.1" class="st28 st29 st30">trout eggs were successfully</tspan><tspan x="0" y="22.1" class="st28 st29 st30">hatched and have matured</tspan><tspan x="0" y="33.2" class="st28 st29 st30"> to the point where they are</tspan><tspan x="0" y="44.2" class="st28 st29 st30">now feeding actively </tspan><tspan x="0" y="55.3" class="st28 st29 st30">in the circular growth tank. . </tspan></text>
<g>
	<text transform="matrix(1 0 0 1 9.5105 50.667)" class="st28 st29 st31">01</text>
</g>
<g>
	<text transform="matrix(1 0 0 1 446.4097 127.3336)" class="st28 st29 st31">02</text>
</g>
<g>
	<text transform="matrix(1 0 0 1 9.5105 204.2902)" class="st28 st29 st31">03</text>
</g>
<g>
	<text transform="matrix(1 0 0 1 9.5105 357.8336)" class="st28 st29 st31">05</text>
</g>
<g>
	<text transform="matrix(1 0 0 1 9.5105 511.5003)" class="st28 st29 st31">07</text>
</g>
<g>
	<text transform="matrix(1 0 0 1 446.4097 277.8398)" class="st28 st29 st31">04</text>
</g>
<g>
	<text transform="matrix(1 0 0 1 444.7292 434.8398)" class="st28 st29 st31">06</text>
</g>
</svg>
